<?xml version="1.0" standalone="no"?>
<!DOCTYPE svg PUBLIC "-//W3C//DTD SVG 20010904//EN"
 "http://www.w3.org/TR/2001/REC-SVG-20010904/DTD/svg10.dtd">
<svg version="1.0" xmlns="http://www.w3.org/2000/svg"
 width="348.000000pt" height="300.000000pt" viewBox="0 0 348.000000 300.000000"
 preserveAspectRatio="xMidYMid meet">

<g transform="translate(0.000000,300.000000) scale(0.100000,-0.100000)"
fill="#000000" stroke="none">
<path d="M670 2207 c0 -1 38 -117 85 -257 47 -139 84 -254 82 -255 -72 -34
-127 -108 -127 -173 0 -42 24 -100 56 -133 l24 -26 -57 -54 c-32 -31 -80 -68
-107 -84 l-49 -29 -28 32 c-40 45 -41 105 -1 126 93 49 129 162 79 251 -72
127 -248 124 -315 -5 -29 -56 -26 -136 6 -179 l21 -29 -36 -88 c-65 -158 -57
-309 21 -400 49 -57 116 -88 204 -92 97 -6 140 7 322 92 179 85 221 99 349
121 51 8 115 25 142 37 64 27 124 95 144 161 19 64 19 91 0 155 -12 40 -13 57
-4 73 16 30 13 112 -5 147 -18 35 -81 92 -101 92 -8 0 -15 2 -15 4 0 3 38 116
85 253 47 136 85 251 85 256 0 4 -193 7 -430 7 -236 0 -430 -1 -430 -3z m744
-99 c-42 -134 -144 -413 -151 -415 -5 -2 -43 66 -84 152 -41 85 -76 155 -79
154 -3 0 -39 -70 -80 -155 -41 -85 -79 -153 -84 -151 -5 2 -42 101 -82 220
l-72 217 319 0 320 0 -7 -22z m-259 -505 c-22 -46 -29 -53 -55 -53 -19 0 -30
5 -30 14 0 7 -12 31 -26 52 l-26 38 41 84 42 84 40 -83 40 -83 -26 -53z m-619
-17 c21 -21 34 -44 34 -60 0 -92 -105 -143 -170 -81 -34 33 -42 70 -25 111 30
72 105 86 161 30z m417 14 c14 -11 31 -35 37 -54 37 -114 -134 -177 -189 -69
-46 91 71 186 152 123z m420 0 c39 -31 52 -81 32 -123 -36 -77 -142 -81 -180
-7 -24 46 -19 78 19 116 40 40 89 46 129 14z m-211 -175 c36 -59 93 -88 162
-83 28 3 58 8 68 12 13 6 18 1 23 -24 10 -45 -13 -116 -49 -154 -38 -40 -87
-58 -235 -85 -92 -17 -139 -33 -245 -82 -254 -118 -309 -135 -390 -117 -95 21
-149 86 -154 190 -5 77 5 127 42 211 32 71 56 70 56 -2 0 -58 41 -127 93 -160
l35 -22 54 24 c75 34 169 107 208 161 30 41 37 46 73 46 54 0 114 36 144 87
21 36 30 43 56 43 27 -1 36 -8 59 -45z"/>
<path d="M2000 1566 c0 -218 -1 -235 -20 -259 -25 -31 -62 -41 -104 -27 -39
12 -57 40 -61 93 -3 38 -4 40 -39 41 -36 1 -36 1 -36 -42 0 -99 58 -154 164
-155 75 -1 120 21 151 73 18 32 20 55 23 273 l4 237 -41 0 -41 0 0 -234z"/>
<path d="M3060 1705 l0 -65 -38 0 c-37 0 -38 -1 -34 -30 4 -27 8 -30 38 -30
l34 0 0 -158 c0 -188 2 -192 93 -192 53 0 57 2 57 23 0 19 -7 25 -42 33 l-43
9 -3 143 -3 142 46 0 c43 0 45 1 45 30 0 29 -2 30 -45 30 l-45 0 0 65 0 65
-30 0 -30 0 0 -65z"/>
<path d="M2285 1635 c-84 -45 -121 -117 -113 -219 11 -134 82 -200 208 -194
79 4 123 31 151 92 l18 41 -32 3 c-20 2 -33 -1 -36 -10 -2 -7 -17 -25 -32 -40
-52 -53 -161 -31 -194 38 -8 18 -15 42 -15 54 0 21 2 21 155 18 l155 -3 0 40
c0 54 -40 137 -81 166 -43 30 -140 38 -184 14z m136 -61 c27 -14 59 -65 59
-94 0 -6 -44 -10 -120 -10 -81 0 -120 4 -120 11 0 26 35 81 59 94 35 19 85 19
122 -1z"/>
<path d="M2674 1636 c-43 -19 -64 -53 -64 -104 0 -67 44 -97 187 -127 42 -8
83 -41 83 -66 0 -38 -35 -59 -98 -59 -64 0 -98 17 -112 56 -8 19 -17 24 -44
24 -33 0 -34 -1 -26 -29 22 -78 74 -111 175 -111 105 0 175 50 175 125 0 67
-42 99 -170 131 -69 17 -100 37 -100 64 0 31 33 50 86 50 55 0 94 -21 94 -51
0 -15 7 -19 35 -19 30 0 35 3 35 24 0 29 -33 72 -70 91 -36 19 -144 19 -186 1z"/>
</g>
</svg>
