<?xml version="1.0" standalone="no"?>
<!DOCTYPE svg PUBLIC "-//W3C//DTD SVG 20010904//EN"
 "http://www.w3.org/TR/2001/REC-SVG-20010904/DTD/svg10.dtd">
<svg version="1.0" xmlns="http://www.w3.org/2000/svg"
 width="824.000000pt" height="824.000000pt" viewBox="0 0 824.000000 824.000000"
 preserveAspectRatio="xMidYMid meet">

<g transform="translate(0.000000,824.000000) scale(0.100000,-0.100000)"
fill="#000000" stroke="none">
<path d="M4104 4580 c3 -17 6 -251 6 -521 1 -311 4 -488 10 -484 6 3 10 14 10
23 0 9 7 30 15 46 8 15 13 31 10 35 -2 4 5 15 16 25 12 10 18 24 15 32 -4 10
-2 12 6 8 7 -5 9 -2 5 9 -3 9 3 27 13 40 11 13 16 28 12 32 -4 5 2 5 13 1 11
-4 16 -4 12 0 -4 4 2 17 12 28 11 12 21 28 23 36 2 8 11 21 21 28 9 7 14 18
11 24 -4 6 -3 8 3 5 11 -7 45 28 36 37 -3 3 2 8 11 12 9 3 16 11 16 18 0 11
33 55 77 103 13 13 23 27 24 31 0 4 5 6 10 4 5 -1 8 4 7 10 -2 7 3 12 10 10 8
-1 11 2 7 8 -4 6 7 23 24 37 17 15 31 33 31 41 0 7 18 31 40 54 21 23 37 44
35 48 -2 4 7 17 21 29 14 12 22 26 19 31 -4 6 1 7 11 3 11 -4 15 -2 11 4 -7
11 30 59 43 56 5 -1 7 5 6 15 -2 9 8 25 21 35 12 10 23 23 23 29 0 6 10 19 22
29 21 19 13 19 -352 19 l-372 0 6 -30z"/>
<path d="M4146 3623 c-6 -14 -5 -15 5 -6 7 7 10 15 7 18 -3 3 -9 -2 -12 -12z"/>
</g>
</svg>
